<svg version="1" xmlns="http://www.w3.org/2000/svg" width="933.333" height="933.333" viewBox="0 0 700.000000 700.000000"><path d="M4 260.9V462l84.8-.4c46.6-.3 86.7-.7 89.2-.9 9.8-.9 17.7-1.9 21-2.7 1.9-.5 5-1.2 6.9-1.5 1.9-.3 6.2-1.5 9.5-2.6 3.4-1.2 6.8-2.2 7.6-2.4 2.7-.5 17.6-7.4 23.9-11 13.1-7.4 22.2-14.5 37.2-29.5 16.8-16.7 21.5-22.6 41.1-51.6 7-10.4 15.4-22.2 18.8-26.3l6-7.4V640h4.8c69.7.6 156.8-.2 173.7-1.6 20.6-1.7 44.8-8.5 63.5-17.8 44.3-22 75.7-57.3 90.4-101.6 5-14.9 9.8-35.6 11.2-48 .4-3 .8-5.8 1-6.1.7-1.2 1.8-23.6 1.7-33.4-.2-14.8-2.2-34.8-4.7-46-11.6-52.7-34.9-88.2-75.5-114.9-21.6-14.3-47.1-24.5-75.6-30.5-5.5-1.1-12-2.3-14.5-2.6-2.5-.3-6.1-.7-8-1-16.7-2.4-84.8-2.4-89-.1-.3.2-2.8.6-5.7 1-2.8.3-5.7.8-6.5 1-.7.3-3.1.8-5.3 1.1-14.1 2-43 12.1-55.1 19.1-2.2 1.3-4.3 2.4-4.5 2.4-.2 0-.5-3.3-.5-7.3-.7-68.4-31.2-130-79.1-159.5-23.1-14.3-50.4-24.5-77.8-29.1-3.3-.6-6.9-1.2-8-1.4-1.1-.3-4.9-.8-8.5-1.1-3.6-.4-7.8-1-9.5-1.3-1.6-.3-39.3-.7-83.7-1L4 59.8v201.1zm154.3-156.5c5.7.5 15.6 2 28.2 4.3 7.3 1.3 28 8.8 38 13.8 19.2 9.6 35.5 23.6 46 39.6 10.2 15.5 21.5 43.6 25.1 62.4.4 2.2.9 4.7 1 5.5 2.5 12.6 2.5 42.8 0 54.5-.3 1.1-1.1 5.1-2 9-4.7 21.9-17.2 47.8-31.7 65.5-16.3 20.1-40 41.2-52.9 47.2-7.1 3.3-20.7 7.4-29 8.8-3.6.6-7.6 1.3-9 1.5-7.3 1.3-42.7 2.1-63.1 1.6l-3.5-.1.1-156.8c.1-86.2.3-156.9.4-157.2.2-.7 43.9-.4 52.4.4zm345.2 178.1c5.9.4 14.8 1.5 16.7 2.1.9.3 3.2.7 5 .9 5.9.6 22 5.3 32.3 9.3 34.8 13.7 59.3 37.4 71.2 69.1 8.7 23.2 12.8 46.3 12.7 72.6-.1 15.6-1.1 25.3-4.9 45-2.1 11-9.5 32.5-14.7 42.9-2.7 5.4-9.5 16.4-10.9 17.6-.3.3-1.2 1.4-2 2.6-4.9 7.2-18.1 19.4-28.7 26.6-11.8 8-34 18.1-44.5 20.2-1.2.3-5.3 1.2-9.2 2-12.3 2.7-20.7 3.2-48.1 3.1l-26.9-.1-.1-157.8-.1-157.9 24.1.8c13.3.4 25.9.8 28.1 1z"/></svg>