<svg xmlns:rdf="http://www.w3.org/1999/02/22-rdf-syntax-ns#" xmlns="http://www.w3.org/2000/svg" height="400mm" width="400mm" version="1.1" xmlns:cc="http://creativecommons.org/ns#" xmlns:dc="http://purl.org/dc/elements/1.1/" viewBox="0 0 1417.3228 1417.3228">
	<defs>
		<linearGradient id="linearGradient6529" x1="265.42" gradientUnits="userSpaceOnUse" y1="347.78" gradientTransform="matrix(6.5102 0 0 6.5102 -708.23 -2478.6)" x2="205.31" y2="309.14">
			<stop stop-color="#48b5ff" offset="0"/>
			<stop stop-color="#94d4ff" offset="1"/>
		</linearGradient>
	</defs>
	<g>
		<path d="m708.66 550.77h205.27v745.14l-205.27 0.064z" fill="#48b5ff"/>
		<path d="m274.2 121.35-2.3145 88.371c113-2.3945 242.03 37.406 292.66 147.89 54.866 109.5 60.895 237.31-22.909 358.66-37.412 60.663 91.995 12.635 118.93-7.8491 60.086-33.968 47.676-112.73 51.145-171.41 3.88-135.09-47.63-283-170.38-352.94-80.07-47.36-175.35-62.18-267.13-62.72z" fill="#94d4ff"/>
	</g>
	<g transform="translate(-130 989.53)">
		<path fill="url(#linearGradient6529)" d="m407.23-868.18h-269.14v813.77c118.51-1.2954 237.22 2.8495 355.59-2.5932 83.267-5.4699 161.9-42.881 217.51-105.33 67.841-61.915 98.946-166.22 182.36-212.63 58.621-31.522 114.76-43.908 150.38-43.908 70.414 0 0.016 0.0715 70.4-0.0234 112.03-0.86175 237.66 44.452 284.12 154.76 43.174 102.68 40.218 225.19-4.9715 326.74-46.907 107.68-168.12 163-281.43 155.47h-73.667v88.358c118.51-1.2954 37.497 2.8495 155.87-2.5932 138.03-10.226 267.81-100.96 314.38-233.05 44.409-126.15 44.995-274.7-19.288-394.28-71.052-129.26-233.46-186.77-375.4-187.41-69.982-0.0858 0 0.0107-70.013-0.0557-89.663-0.085-213.16 32.169-285.08 120.48-57.818 78.022-111.67 163.78-193.74 218.85-68.459 35.898-147.2 27.958-221.75 28.84v-637.05h61.557"/>
	</g>
</svg>
